<svg width="512" height="512" viewBox="0 0 512 512" xmlns="http://www.w3.org/2000/svg">
  <defs>
    <!-- 主背景渐变 - 蓝色调 -->
    <radialGradient id="bgGradient" cx="50%" cy="30%" r="80%">
      <stop offset="0%" stop-color="#60A5FA"/>
      <stop offset="50%" stop-color="#3B82F6"/>
      <stop offset="100%" stop-color="#1E40AF"/>
    </radialGradient>
    
    <!-- 播放按钮渐变 -->
    <linearGradient id="playGradient" x1="0%" y1="0%" x2="100%" y2="100%">
      <stop offset="0%" stop-color="#FFFFFF"/>
      <stop offset="100%" stop-color="#F1F5F9"/>
    </linearGradient>
    
    <!-- 发光效果 -->
    <filter id="glow">
      <feGaussianBlur stdDeviation="8" result="coloredBlur"/>
      <feMerge> 
        <feMergeNode in="coloredBlur"/>
        <feMergeNode in="SourceGraphic"/>
      </feMerge>
    </filter>
    
    <!-- 阴影效果 -->
    <filter id="shadow">
      <feDropShadow dx="0" dy="8" stdDeviation="16" flood-opacity="0.4"/>
    </filter>
  </defs>
  
  <!-- 主背景 -->
  <rect width="512" height="512" rx="102" ry="102" fill="url(#bgGradient)" filter="url(#shadow)"/>
  
  <!-- 音波环形效果 -->
  <g opacity="0.3">
    <circle cx="256" cy="256" r="180" fill="none" stroke="rgba(255,255,255,0.4)" stroke-width="3" stroke-dasharray="8,8"/>
    <circle cx="256" cy="256" r="200" fill="none" stroke="rgba(255,255,255,0.3)" stroke-width="2" stroke-dasharray="12,12"/>
    <circle cx="256" cy="256" r="220" fill="none" stroke="rgba(255,255,255,0.2)" stroke-width="2" stroke-dasharray="16,16"/>
  </g>
  
  <!-- 主播放按钮 -->
  <g transform="translate(256, 256)">
    <circle r="90" fill="url(#playGradient)" filter="url(#glow)" opacity="0.95"/>
    <polygon points="-30,-40 -30,40 50,0" fill="#1E40AF"/>
  </g>
  
  <!-- 音符装饰 -->
  <g opacity="0.8">
    <!-- 大音符 -->
    <g transform="translate(380, 120)">
      <ellipse cx="0" cy="30" rx="12" ry="8" fill="white"/>
      <rect x="10" y="-20" width="4" height="50" fill="white"/>
      <path d="M14 -20 Q28 -15 28 -5 Q28 5 20 0 L14 5 Z" fill="white"/>
    </g>
    
    <!-- 中音符 -->
    <g transform="translate(420, 180)">
      <ellipse cx="0" cy="20" rx="8" ry="6" fill="rgba(255,255,255,0.9)"/>
      <rect x="6" y="-15" width="3" height="35" fill="rgba(255,255,255,0.9)"/>
      <path d="M9 -15 Q18 -12 18 -5 Q18 2 12 -1 L9 2 Z" fill="rgba(255,255,255,0.9)"/>
    </g>
    
    <!-- 小音符 -->
    <g transform="translate(140, 160)">
      <ellipse cx="0" cy="15" rx="6" ry="4" fill="rgba(255,255,255,0.7)"/>
      <rect x="4" y="-10" width="2" height="25" fill="rgba(255,255,255,0.7)"/>
    </g>
  </g>
  
  <!-- 底部音波装饰 -->
  <g transform="translate(256, 420)" opacity="0.6">
    <rect x="-80" y="0" width="8" height="20" fill="white" rx="4"/>
    <rect x="-60" y="-8" width="8" height="36" fill="white" rx="4"/>
    <rect x="-40" y="4" width="8" height="16" fill="white" rx="4"/>
    <rect x="-20" y="-12" width="8" height="44" fill="white" rx="4"/>
    <rect x="0" y="2" width="8" height="18" fill="white" rx="4"/>
    <rect x="20" y="-6" width="8" height="32" fill="white" rx="4"/>
    <rect x="40" y="6" width="8" height="14" fill="white" rx="4"/>
    <rect x="60" y="-4" width="8" height="28" fill="white" rx="4"/>
    <rect x="80" y="8" width="8" height="12" fill="white" rx="4"/>
  </g>
  
  <!-- 顶部装饰光点 -->
  <g opacity="0.7">
    <circle cx="120" cy="80" r="6" fill="white"/>
    <circle cx="160" cy="60" r="4" fill="rgba(255,255,255,0.8)"/>
    <circle cx="200" cy="70" r="3" fill="rgba(255,255,255,0.6)"/>
    <circle cx="350" cy="70" r="5" fill="rgba(255,255,255,0.9)"/>
    <circle cx="390" cy="90" r="3" fill="rgba(255,255,255,0.7)"/>
  </g>
  
  <!-- 香槟音乐标识 -->
  <g transform="translate(256, 380)" opacity="0.8">
    <text x="0" y="0" text-anchor="middle" fill="white" font-family="Arial, sans-serif" font-size="24" font-weight="bold">香槟音乐</text>
  </g>
</svg>